<svg xmlns="http://www.w3.org/2000/svg" viewBox="0 0 128.097 115.8"><title>ig</title><rect x="11.861" width="0.643" height="115.8"/><rect y="11.025" width="128.097" height="0.643"/><rect x="0.065" y="104.116" width="128.032" height="0.643"/><rect x="116.428" width="0.643" height="115.8"/><path d="M75.424,36.783h-24.6a7.758,7.758,0,0,0-7.75,7.748v24.6a7.757,7.757,0,0,0,7.75,7.748h24.6a7.757,7.757,0,0,0,7.75-7.748v-24.6A7.758,7.758,0,0,0,75.424,36.783ZM77.646,41.4l.888,0v6.8l-6.774.022-.023-6.8ZM57.4,52.717a7.047,7.047,0,1,1-1.333,4.115A7.053,7.053,0,0,1,57.4,52.717ZM79.268,69.132a3.848,3.848,0,0,1-3.844,3.843h-24.6a3.848,3.848,0,0,1-3.844-3.843V52.717h5.986a10.863,10.863,0,0,0-.808,4.115,10.964,10.964,0,1,0,21.12-4.115h5.986Z"/></svg>