<svg xmlns="http://www.w3.org/2000/svg" width="1819.25" height="278" viewBox="0 0 1819.25 278">
  <metadata><?xpacket begin="﻿" id="W5M0MpCehiHzreSzNTczkc9d"?>
<x:xmpmeta xmlns:x="adobe:ns:meta/" x:xmptk="Adobe XMP Core 5.6-c138 79.159824, 2016/09/14-01:09:01        ">
   <rdf:RDF xmlns:rdf="http://www.w3.org/1999/02/22-rdf-syntax-ns#">
      <rdf:Description rdf:about=""/>
   </rdf:RDF>
</x:xmpmeta>
                                                                                                    
                                                                                                    
                                                                                                    
                                                                                                    
                                                                                                    
                                                                                                    
                                                                                                    
                                                                                                    
                                                                                                    
                                                                                                    
                                                                                                    
                                                                                                    
                                                                                                    
                                                                                                    
                                                                                                    
                                                                                                    
                                                                                                    
                                                                                                    
                                                                                                    
                                                                                                    
                           
<?xpacket end="w"?></metadata>
<defs>
    <style>
      .cls-1 {
        fill: #f3ecf3;
        fill-rule: evenodd;
      }
    </style>
  </defs>
  <path id="Introduction" class="cls-1" d="M1153.13,1981.87c-12.6.68-33.39,1.02-52.8,1.02-22.32,0-43.27-.34-55.02-1.02v6.98c21.97,1.03,26.06,4.6,26.06,29.98V2191.9c0,25.38-3.92,28.95-26.06,29.98v6.98c11.75-.68,32.7-1.02,55.02-1.02,19.41,0,40.2.34,52.8,1.02v-6.98c-22.14-1.03-26.23-4.6-26.23-29.98V2018.83c0-25.38,3.92-28.95,26.23-29.98v-6.98Zm128.71,61.66c-24.53,0-45.31,8.86-56.89,32.54v-31.52c-14.65,3.41-31.52,4.94-50.94,4.94-6.98,0-14.3-.51-21.63-1.19v7.33c16.86,0,22.32,9.88,22.32,30.83V2196.5c0,19.41-6.14,25.04-22.32,25.04v7.32c9.2-.34,30.15-1.36,48.04-1.36,17.03,0,35.09,1.02,43.26,1.36v-7.32c-13.8,0-18.73-5.63-18.73-25.04v-97.27c0-22.99,14.98-40.37,34.57-40.37,17.38,0,21.47,11.76,21.47,29.13V2196.5c0,19.41-4.94,25.04-18.74,25.04v7.32c8.52-.34,27.42-1.36,45.31-1.36,17.03,0,37.13,1.02,45.99,1.36v-7.32c-16.18,0-22.31-5.63-22.31-25.04v-94.03c0-23.68-3.24-36.45-10.91-45.31C1313.18,2048.98,1301.77,2043.53,1281.84,2043.53Zm134.56,5.11v-57.4c-14.48,7.83-30.66,11.07-50.25,11.24v46.16h-29.3v6.99h29.3v117.7c0,24.36,2.55,38.5,12.6,48.72,7.84,7.83,19.25,11.75,34.92,11.75,25.72,0,40.03-14.99,47.7-35.77l-5.8-3.24c-6.81,15.5-15.33,20.95-23.84,20.95-10.22,0-15.33-5.11-15.33-19.41v-140.7h41.22v-6.99H1416.4Zm150.84-5.11c-21.97,0-38.84,14.82-47.18,33.56v-32.54c-14.65,3.41-31.51,4.94-50.93,4.94-6.99,0-14.31-.51-21.64-1.19v7.33c16.87,0,22.32,9.88,22.32,30.83V2196.5c0,19.41-6.13,25.04-22.32,25.04v7.32c9.54-.34,30.84-1.36,49.91-1.36,21.98,0,44.63,1.02,55.36,1.36v-7.32c-21.97,0-32.7-6.14-32.7-28.62V2100.6c0-18.74,13.11-41.91,31.68-44.97a17.771,17.771,0,0,1,4.94-.86,13.034,13.034,0,0,1,4.6.86c-8.69,5.79-15.33,14.13-15.33,26.91,0,13.63,9.71,22.48,26.06,22.48s27.08-12.09,27.08-29.29C1599.09,2060.06,1589.9,2043.53,1567.24,2043.53Zm112.21,0c-50.08,0-85.34,26.23-85.34,95.22,0,69.16,35.26,95.05,85.34,95.05,50.25,0,85.51-25.89,85.51-95.05C1764.96,2069.76,1729.7,2043.53,1679.45,2043.53Zm0,6.99c19.08,0,32.87,25.89,32.87,88.23,0,62.52-13.79,88.07-32.87,88.07-18.91,0-32.71-25.55-32.71-88.07C1646.74,2076.41,1660.54,2050.52,1679.45,2050.52Zm257.7-94.71c-14.48,3.41-31.34,4.77-50.93,4.77-6.98,0-14.31-.34-21.63-1.02v7.32c16.86,0,22.31,9.88,22.31,30.83v58.94c-9.37-9.37-22.65-13.12-38.5-13.12-44.79,0-78.01,31.17-78.01,94.37,0,66.43,29.64,95.9,71.2,95.9,22.66,0,37.3-10.73,45.31-30.83v29.47c14.65-3.41,31.51-4.77,50.93-4.77,6.99,0,14.31.34,21.63,1.02v-7.32c-16.86,0-22.31-9.88-22.31-30.67V1955.81Zm-81.08,262.83c-20.1,0-33.05-20.44-32.88-80.06-0.17-57.57,14.31-85,38.33-85,9.88,0,19.08,3.58,25.38,11.76v124C1883.66,2207.74,1870.38,2218.64,1856.07,2218.64Zm270.99-174.09c-14.47,3.41-31.51,4.94-50.93,4.94-6.98,0-14.3-.51-21.63-1.19v7.33c16.86,0,22.32,9.88,22.32,30.83v91.64c0,22.99-15.34,40.37-33.9,40.37-17.38,0-20.78-11.92-20.78-29.3V2044.55c-14.65,3.41-31.52,4.94-50.93,4.94-6.99,0-14.31-.51-21.64-1.19v7.33c16.87,0,22.32,9.88,22.32,30.83v88.4c0,23,2.89,36.46,10.56,45.14,7.32,8.18,18.91,13.8,38.15,13.8,24.02,0,44.8-9.2,56.22-32.53v31.51c14.47-3.41,31.51-4.77,50.93-4.77,6.98,0,14.3.34,21.63,1.02v-7.32c-16.86,0-22.32-9.88-22.32-30.67V2044.55Zm107.31-1.02c-49.4,0-86.19,33.05-86.19,96.07,0,65.41,35.77,94.2,81.25,94.2,39.86,0,61.32-28.96,69.33-55.02l-6.14-2.21c-14.13,23.33-32.7,28.44-45.65,28.44-22.99,0-46.16-16.18-46.16-70.35,0-47.35,15.16-82.61,44.12-82.61,9.2,0,17.37,3.58,20.95,8.35-12.43,3.4-22.99,13.96-22.99,28.61,0,15.67,10.39,25.89,26.91,25.89,16.01,0,27.59-11.58,27.59-28.1,0-13.8-7.49-25.38-19.24-32.54C2268.1,2047.96,2252.42,2043.53,2234.37,2043.53Zm132.48,5.11v-57.4c-14.48,7.83-30.66,11.07-50.25,11.24v46.16h-29.29v6.99h29.29v117.7c0,24.36,2.56,38.5,12.61,48.72,7.83,7.83,19.25,11.75,34.92,11.75,25.72,0,40.03-14.99,47.69-35.77l-5.79-3.24c-6.81,15.5-15.33,20.95-23.85,20.95-10.22,0-15.33-5.11-15.33-19.41v-140.7h41.23v-6.99h-41.23Zm76.24-90.28c-19.59,0-31.85,10.22-31.85,26.92,0,16.86,12.26,27.08,31.85,27.08,19.25,0,31.68-10.22,31.68-27.08C2474.77,1968.58,2462.34,1958.36,2443.09,1958.36Zm27.42,86.19c-14.65,3.41-31.51,4.94-50.93,4.94-6.98,0-14.31-.51-21.63-1.19v7.33c16.86,0,22.31,9.88,22.31,30.83V2196.5c0,19.41-6.13,25.04-22.31,25.04v7.32c9.2-.34,30.15-1.36,48.21-1.36,18.22,0,37.81,1.02,46.67,1.36v-7.32c-16.35,0-22.32-5.63-22.32-25.04V2044.55Zm106.55-1.02c-50.08,0-85.34,26.23-85.34,95.22,0,69.16,35.26,95.05,85.34,95.05,50.25,0,85.51-25.89,85.51-95.05C2662.57,2069.76,2627.31,2043.53,2577.06,2043.53Zm0,6.99c19.08,0,32.88,25.89,32.88,88.23,0,62.52-13.8,88.07-32.88,88.07-18.91,0-32.7-25.55-32.7-88.07C2544.36,2076.41,2558.15,2050.52,2577.06,2050.52Zm215.8-6.99c-24.53,0-45.31,8.86-56.89,32.54v-31.52c-14.65,3.41-31.52,4.94-50.93,4.94-6.99,0-14.31-.51-21.64-1.19v7.33c16.87,0,22.32,9.88,22.32,30.83V2196.5c0,19.41-6.14,25.04-22.32,25.04v7.32c9.2-.34,30.15-1.36,48.04-1.36,17.03,0,35.09,1.02,43.26,1.36v-7.32c-13.79,0-18.73-5.63-18.73-25.04v-97.27c0-22.99,14.99-40.37,34.57-40.37,17.38,0,21.47,11.76,21.47,29.13V2196.5c0,19.41-4.94,25.04-18.74,25.04v7.32c8.52-.34,27.42-1.36,45.31-1.36,17.03,0,37.13,1.02,45.99,1.36v-7.32c-16.18,0-22.31-5.63-22.31-25.04v-94.03c0-23.68-3.24-36.45-10.9-45.31C2824.2,2048.98,2812.79,2043.53,2792.86,2043.53Z" transform="translate(-1045.31 -1955.81)"/>
</svg>
