<svg xmlns="http://www.w3.org/2000/svg" viewBox="0 0 263.321 45.234"><defs><style>.a{fill:#fff;}</style></defs><title>Asset 6</title><path class="a" d="M252.568,15.252h.644V11.383H252.2V12.2h-.84V10.582h4.708V12.2h-.841v-.816H254.2v3.868h.651V16h-2.286Z"/><path class="a" d="M256.556,15.252h.635l.318-3.914h-.65v-.755h1.748l1.2,3.06a4.225,4.225,0,0,1,.129.45h.016a3.384,3.384,0,0,1,.136-.45l1.188-3.06h1.748v.755h-.644l.311,3.914h.636V16h-2.2v-.748h.6l-.2-2.731a3.234,3.234,0,0,1,.022-.5h-.022a4.063,4.063,0,0,1-.129.48l-1.029,2.5h-.848l-1.029-2.5a3.476,3.476,0,0,1-.121-.48h-.03a3.234,3.234,0,0,1,.022.5l-.2,2.731h.605V16h-2.209Z"/><path class="a" d="M22.617,0h0A22.617,22.617,0,0,0,0,22.617H0A22.617,22.617,0,0,0,22.617,45.234h0A22.617,22.617,0,0,0,45.234,22.617h0A22.617,22.617,0,0,0,22.617,0Zm1.459,27.445L19.222,29.6l1.787-.795v1.565c.05,2.92-.88,4.169-2.876,4.964l-2.818,1.155v-2.38c-.011.141-.018.281-.018.42v-5.87c0-2.541,1.689-4.117,4.1-4.95l4.24-1.665c1.488-.624,2.743-1.714,1.988-2.528,1.134.775,1.385,1.923,1.385,3.877C27.01,24.931,26.457,26.335,24.076,27.445Zm5.879-15.829a4.013,4.013,0,0,1-2.934,4.114L18.677,19.1c-1.4.586-2.743,1.714-1.988,2.528C15.008,20.451,15.3,17.6,15.3,17.6a4.088,4.088,0,0,1,2.776-4.015l11.88-4.848Z"/><path class="a" d="M15.408,33.465a4.282,4.282,0,0,1,.413-1.134A4.282,4.282,0,0,0,15.408,33.465Z"/><path class="a" d="M15.321,34.057a4.826,4.826,0,0,1,.077-.544A4.84,4.84,0,0,0,15.321,34.057Z"/><path class="a" d="M16.694,31.188a5.062,5.062,0,0,0-.449.5A5.055,5.055,0,0,1,16.694,31.188Z"/><path class="a" d="M19.222,29.6c-.342.143-.65.293-.938.448C18.572,29.9,18.88,29.747,19.222,29.6Z"/><path class="a" d="M15.844,32.287a4.455,4.455,0,0,1,.344-.526A4.455,4.455,0,0,0,15.844,32.287Z"/><path class="a" d="M18.193,30.1a7.941,7.941,0,0,0-.733.458A7.941,7.941,0,0,1,18.193,30.1Z"/><path class="a" d="M17.356,30.631a6.18,6.18,0,0,0-.576.475A6.18,6.18,0,0,1,17.356,30.631Z"/><path class="a" d="M62.151,31.15h2.89V13.71h-2.89V10.344H79.387v3.381H69.5l-.007,7.328h7.854v3.569H69.494V31.15h3.2v3.332H62.151Z"/><path class="a" d="M79.389,31.252H81.9V13.725H79.219V10.344h7v8.432a9.839,9.839,0,0,1-.1,1.462h.068a6.766,6.766,0,0,1,5.983-3.5c3.842,0,6.051,2.006,6.051,6.595v7.922h2.516v3.229H93.905V24.215c0-2.108-.544-3.536-2.72-3.536-3.06,0-4.963,2.651-4.963,5.848v4.726H88.7v3.229H79.389Z"/><path class="a" d="M110.123,16.735c5.3,0,9.553,3.773,9.553,9.077,0,5.337-4.25,9.077-9.519,9.077-5.3,0-9.553-3.74-9.553-9.077C100.6,20.509,104.854,16.735,110.123,16.735Zm.034,14.482a5.154,5.154,0,0,0,5.133-5.405,5.156,5.156,0,1,0-10.3,0A5.16,5.16,0,0,0,110.157,31.218Z"/><path class="a" d="M119.78,31.252H122.3V13.574H119.61v-3.23h7V23.7h2.278l2.821-3.331h-2.006V17.144h8.329v3.229h-2.243l-3.773,4.453v.068a3.4,3.4,0,0,1,1.325,1.462l2.448,4.283c.306.51.611.612,1.428.612h.985v3.229h-3.229c-1.462,0-2.039-.238-2.72-1.5l-3.128-5.474c-.34-.611-.884-.646-1.5-.646h-1.021v4.386h1.87v3.229h-8.7Z"/><path class="a" d="M147.388,16.735c5,0,7.717,3.638,7.717,8.228,0,.51-.1,1.461-.1,1.461H143a5,5,0,0,0,5.2,4.828,8.763,8.763,0,0,0,5.032-1.836l1.665,3.06a11.033,11.033,0,0,1-7,2.414,8.885,8.885,0,0,1-9.315-9.077C138.582,20.475,142.187,16.735,147.388,16.735Zm3.264,7.14c-.068-2.38-1.53-3.808-3.366-3.808a4.221,4.221,0,0,0-4.182,3.808Z"/><path class="a" d="M162.315,29.178h2.107V30.4c0,1.733,2.481,2.481,4.453,2.481,2.176,0,4.012-.952,4.012-2.686,0-1.972-2.176-2.652-4.623-3.57-2.584-.951-5.3-2.107-5.3-5.1,0-3.128,3.06-4.556,5.915-4.556,2.313,0,5.678.985,5.678,3.331v1.973h-2.107V21.019c0-1.258-1.7-2.039-3.5-2.039-1.9,0-3.6.815-3.6,2.481,0,1.869,2.073,2.651,4.317,3.468,2.651.951,5.575,2.073,5.575,5.133,0,2.958-2.651,4.828-6.459,4.828-3.162,0-6.459-1.428-6.459-4.046Z"/><path class="a" d="M178.4,19.285h-3.06v-1.9h3.094V12.656h2.277v4.726h4.317v1.9h-4.317v8.771c0,4.012,2.55,4.556,3.876,4.556a4,4,0,0,0,.781-.067V34.55a6.673,6.673,0,0,1-.985.067c-1.972,0-5.983-.646-5.983-6.357Z"/><path class="a" d="M187.847,19.285h-3.06v-1.9h5.371v10.3c0,2.687.408,5.066,3.74,5.066,3.841,0,6.289-3.536,6.289-7.242V19.285h-3.06v-1.9H202.5V31.863a.666.666,0,0,0,.748.748h1.938v1.87H202.3c-1.428,0-2.039-.612-2.039-1.9v-.851c0-.68.033-1.224.033-1.224h-.067a7.193,7.193,0,0,1-6.766,4.386c-3.943,0-5.609-2.176-5.609-6.63Z"/><path class="a" d="M213.652,16.974a6.156,6.156,0,0,1,5.576,3.331h.067a8.491,8.491,0,0,1-.1-1.325V12.486h-3.06v-1.9h5.371V31.83a.666.666,0,0,0,.748.748h6.9v1.9h-7.822c-1.462,0-2.04-.646-2.04-1.87v-.306a3.355,3.355,0,0,1,.137-1.054h-.068a6.4,6.4,0,0,1-6.018,3.638c-4.59,0-7.411-3.672-7.411-8.941C205.935,20.509,209.1,16.974,213.652,16.974Zm.068,15.842c2.855,0,5.542-2.04,5.542-6.867,0-3.5-1.769-6.867-5.406-6.867-3.06,0-5.541,2.516-5.541,6.867C208.315,30.13,210.525,32.816,213.72,32.816Z"/><path class="a" d="M224.838,32.578h2.89V19.285h-3.06v-1.9h5.372v15.2h2.89v1.9h-8.092Zm2.754-22h2.618v2.89h-2.618Z"/><path class="a" d="M242.314,16.974a8.958,8.958,0,1,1-9.009,8.873A8.853,8.853,0,0,1,242.314,16.974Zm0,15.842a6.746,6.746,0,0,0,6.663-6.969,6.648,6.648,0,1,0-13.293,0A6.74,6.74,0,0,0,242.314,32.816Z"/></svg>