<svg xmlns="http://www.w3.org/2000/svg" viewBox="0 0 128.097 115.8"><defs><style>.a{fill:#010101;}</style></defs><title>twitter</title><rect x="11.861" width="0.643" height="115.8"/><rect y="11.025" width="128.097" height="0.643"/><rect x="0.065" y="104.116" width="128.032" height="0.643"/><rect x="116.428" width="0.643" height="115.8"/><path class="a" d="M85.767,42.745a15.55,15.55,0,0,1-4.834,1.381,9.192,9.192,0,0,0,3.8-4.662,15.674,15.674,0,0,1-5.352,2.072,9.035,9.035,0,0,0-6.388-2.762,8.474,8.474,0,0,0-8.46,8.46,6.474,6.474,0,0,0,.173,1.9,23.612,23.612,0,0,1-17.438-8.805,7.416,7.416,0,0,0-1.209,4.316,8.669,8.669,0,0,0,3.8,7.079,12.24,12.24,0,0,1-3.8-1.036v.173a8.374,8.374,0,0,0,6.734,8.287,8.748,8.748,0,0,1-2.245.345,4.78,4.78,0,0,1-1.554-.173,8.185,8.185,0,0,0,7.942,5.87A17.272,17.272,0,0,1,46.4,68.816a8.406,8.406,0,0,1-2.072-.173,24.168,24.168,0,0,0,12.949,3.8c15.712,0,24.172-12.949,24.172-24.172V47.234a17.789,17.789,0,0,0,4.316-4.489"/></svg>