<svg xmlns="http://www.w3.org/2000/svg" viewBox="0 0 1030.693 673.294"><defs><style>.a{fill:#1b84ed;}.b{fill:#ff7c73;}.c{fill:#0c73ed;}.d{fill:#444;}.e{fill:#d9d9d9;}.f{fill:none;}.g{fill:#fff;}</style></defs><title>video4</title><rect class="a" x="90.277" y="178.389" width="482.419" height="300.175" rx="30" ry="30"/><path class="b" d="M747.965,150.825a2.522,2.522,0,0,1-1.789-.741l-5.13-5.13a2.531,2.531,0,1,1,3.579-3.579l5.13,5.13a2.531,2.531,0,0,1-1.789,4.32Z"/><path class="b" d="M745.653,157.034H738.4a2.531,2.531,0,0,1,0-5.062h7.255a2.531,2.531,0,0,1,0,5.062Z"/><path class="b" d="M743.278,168.188a2.531,2.531,0,0,1-1.79-4.32l5.13-5.13a2.531,2.531,0,0,1,3.579,3.579l-5.13,5.13A2.524,2.524,0,0,1,743.278,168.188Z"/><path class="b" d="M754.616,172.625a2.531,2.531,0,0,1-2.531-2.531V162.84a2.531,2.531,0,1,1,5.062,0v7.255A2.531,2.531,0,0,1,754.616,172.625Z"/><path class="b" d="M765.771,167.745a2.522,2.522,0,0,1-1.789-.741l-5.13-5.13a2.531,2.531,0,1,1,3.579-3.579l5.13,5.13a2.531,2.531,0,0,1-1.789,4.32Z"/><path class="b" d="M770.208,156.407h-7.255a2.531,2.531,0,1,1,0-5.061h7.255a2.531,2.531,0,1,1,0,5.061Z"/><path class="b" d="M760.2,150.382a2.531,2.531,0,0,1-1.79-4.32l5.13-5.13a2.531,2.531,0,0,1,3.579,3.579l-5.13,5.13A2.524,2.524,0,0,1,760.2,150.382Z"/><path class="b" d="M753.989,148.07a2.531,2.531,0,0,1-2.531-2.531v-7.255a2.531,2.531,0,0,1,5.061,0v7.255A2.531,2.531,0,0,1,753.989,148.07Z"/><path class="b" d="M864.468,400.743a16.371,16.371,0,1,1,16.371-16.371A16.389,16.389,0,0,1,864.468,400.743Zm0-26.086a9.716,9.716,0,1,0,9.716,9.716A9.726,9.726,0,0,0,864.468,374.657Z"/><path class="c" d="M858.807,233.743h8.661V242.4a5.339,5.339,0,1,0,10.678,0v-8.661h8.661a5.339,5.339,0,1,0,0-10.678h-8.661V214.4a5.339,5.339,0,0,0-10.678,0v8.661h-8.661a5.339,5.339,0,0,0,0,10.678Z"/><path class="a" d="M806.34,313.868l-3.763-3.763,3.763-3.763A3.28,3.28,0,1,0,801.7,301.7l-3.763,3.763-3.763-3.763a3.28,3.28,0,1,0-4.639,4.639l3.763,3.763-3.763,3.763a3.28,3.28,0,0,0,4.639,4.639l3.763-3.763,3.763,3.763a3.28,3.28,0,1,0,4.639-4.639Z"/><circle class="b" cx="571.587" cy="531.743" r="7.168"/><circle class="b" cx="933.249" cy="310.106" r="7.168"/><circle class="a" cx="779.518" cy="463.564" r="7.168"/><path class="a" d="M650.4,130.956a10.2,10.2,0,1,1,0-20.4,2.012,2.012,0,0,1,0,4.024,6.177,6.177,0,1,0,6.176,6.177,2.012,2.012,0,0,1,4.024,0A10.213,10.213,0,0,1,650.4,130.956Z"/><rect class="c" x="571.587" y="236.468" width="28.178" height="184.017"/><path class="a" d="M650.253,468.078l-50.488-47.593V236.468l50.488-47.593c24.386-22.988,64.444-5.7,64.444,27.814V440.264C714.7,473.777,674.639,491.066,650.253,468.078Z"/><rect class="d" x="208.175" y="91.359" width="246.625" height="8"/><path class="e" d="M208.174,41.743a95.521,95.521,0,1,0,95.521,95.521A95.521,95.521,0,0,0,208.174,41.743Zm49.82,50.686L272,116.687a9.853,9.853,0,0,1-8.533,14.779H226.924a4.926,4.926,0,0,1-4.266-7.39l18.271-31.647A9.853,9.853,0,0,1,257.994,92.429ZM194.168,71.963h28.01a9.853,9.853,0,0,1,8.533,14.779L212.44,118.389a4.926,4.926,0,0,1-8.533,0L185.636,86.742A9.853,9.853,0,0,1,194.168,71.963Zm-49.637,45.042,14.005-24.258a9.853,9.853,0,0,1,17.065,0l18.271,31.647a4.926,4.926,0,0,1-4.266,7.389H153.064A9.853,9.853,0,0,1,144.532,117.005Zm14.189,65.507-14.005-24.257a9.853,9.853,0,0,1,8.533-14.779h36.543a4.926,4.926,0,0,1,4.266,7.389l-18.271,31.647A9.853,9.853,0,0,1,158.721,182.513Zm63.826,20.466h-28.01A9.853,9.853,0,0,1,186,188.2l18.272-31.647a4.926,4.926,0,0,1,8.533,0L231.079,188.2A9.853,9.853,0,0,1,222.546,202.978Zm49.637-45.042-14.005,24.258a9.853,9.853,0,0,1-17.065,0l-18.271-31.647a4.926,4.926,0,0,1,4.266-7.389H263.65A9.853,9.853,0,0,1,272.183,157.937Z"/><path class="d" d="M227.036,131.431H254.26a46.4,46.4,0,0,0-17.872-31.066L222.744,124A4.956,4.956,0,0,0,227.036,131.431Z"/><path class="d" d="M254.249,143.193H227.221a4.956,4.956,0,0,0-4.292,7.434l13.549,23.467A46.4,46.4,0,0,0,254.249,143.193Z"/><path class="d" d="M204.252,156.667,190.62,180.279a46.58,46.58,0,0,0,35.706-.246l-13.49-23.365A4.956,4.956,0,0,0,204.252,156.667Z"/><path class="d" d="M189.681,143.513H162.143a46.417,46.417,0,0,0,18.239,30.974l13.591-23.54A4.956,4.956,0,0,0,189.681,143.513Z"/><path class="d" d="M193.788,124.318,179.96,100.365a46.4,46.4,0,0,0-17.909,31.386H189.5A4.956,4.956,0,0,0,193.788,124.318Z"/><path class="d" d="M212.465,118.277l13.756-23.826a46.6,46.6,0,0,0-36.1,0l13.756,23.826A4.956,4.956,0,0,0,212.465,118.277Z"/><path class="f" d="M193.874,124.395,175.6,92.748a9.853,9.853,0,0,0-17.065,0l-14.005,24.258a9.853,9.853,0,0,0,8.533,14.779h36.543A4.926,4.926,0,0,0,193.874,124.395Z"/><path class="f" d="M212.44,118.389l18.271-31.647a9.853,9.853,0,0,0-8.533-14.779h-28.01a9.853,9.853,0,0,0-8.533,14.779l18.271,31.647A4.926,4.926,0,0,0,212.44,118.389Z"/><path class="f" d="M226.924,131.466h36.543A9.853,9.853,0,0,0,272,116.687L257.994,92.429a9.853,9.853,0,0,0-17.065,0l-18.271,31.647A4.926,4.926,0,0,0,226.924,131.466Z"/><path class="f" d="M222.841,150.547l18.271,31.647a9.853,9.853,0,0,0,17.065,0l14.005-24.258a9.853,9.853,0,0,0-8.533-14.779H227.107A4.926,4.926,0,0,0,222.841,150.547Z"/><path class="f" d="M204.275,156.552,186,188.2a9.853,9.853,0,0,0,8.533,14.779h28.01a9.853,9.853,0,0,0,8.533-14.779l-18.271-31.647A4.926,4.926,0,0,0,204.275,156.552Z"/><circle class="b" cx="208.496" cy="137.264" r="7.396"/><path class="e" d="M454.8,41.743a95.521,95.521,0,1,0,95.521,95.521A95.521,95.521,0,0,0,454.8,41.743Zm49.82,50.686,14,24.258a9.853,9.853,0,0,1-8.533,14.779H473.549a4.926,4.926,0,0,1-4.266-7.39l18.271-31.647A9.853,9.853,0,0,1,504.62,92.429ZM440.794,71.963H468.8a9.853,9.853,0,0,1,8.533,14.779l-18.271,31.647a4.926,4.926,0,0,1-8.533,0L432.261,86.742A9.853,9.853,0,0,1,440.794,71.963Zm-49.637,45.042,14.005-24.258a9.853,9.853,0,0,1,17.065,0L440.5,124.395a4.926,4.926,0,0,1-4.266,7.389H399.69A9.853,9.853,0,0,1,391.157,117.005Zm14.189,65.507-14.005-24.257a9.853,9.853,0,0,1,8.533-14.779h36.543a4.926,4.926,0,0,1,4.266,7.389l-18.271,31.647A9.853,9.853,0,0,1,405.346,182.513Zm63.826,20.466h-28.01a9.853,9.853,0,0,1-8.533-14.779L450.9,156.552a4.926,4.926,0,0,1,8.533,0L477.7,188.2A9.853,9.853,0,0,1,469.172,202.978Zm49.637-45.042L504.8,182.194a9.853,9.853,0,0,1-17.065,0l-18.271-31.647a4.926,4.926,0,0,1,4.266-7.389h36.543A9.853,9.853,0,0,1,518.809,157.937Z"/><path class="d" d="M473.358,131.525h26.787a45.658,45.658,0,0,0-17.585-30.567L469.135,124.21A4.876,4.876,0,0,0,473.358,131.525Z"/><path class="d" d="M500.135,143.1H473.54a4.876,4.876,0,0,0-4.223,7.314l13.331,23.09A45.658,45.658,0,0,0,500.135,143.1Z"/><path class="d" d="M450.94,156.356l-13.413,23.233a45.833,45.833,0,0,0,35.133-.242l-13.273-22.99A4.876,4.876,0,0,0,450.94,156.356Z"/><path class="d" d="M436.6,143.413h-27.1a45.672,45.672,0,0,0,17.946,30.476l13.373-23.162A4.876,4.876,0,0,0,436.6,143.413Z"/><path class="d" d="M440.645,124.526l-13.607-23.568a45.654,45.654,0,0,0-17.621,30.882h27.005A4.876,4.876,0,0,0,440.645,124.526Z"/><path class="d" d="M459.022,118.582l13.535-23.444a45.85,45.85,0,0,0-35.516,0l13.535,23.444A4.876,4.876,0,0,0,459.022,118.582Z"/><circle class="b" cx="455.121" cy="137.264" r="7.396"/><path class="c" d="M676.473,178.73H684.7a30,30,0,0,1,30,30V448.564a30,30,0,0,1-30,30h-8.224a0,0,0,0,1,0,0V178.73A0,0,0,0,1,676.473,178.73Z"/><path class="d" d="M253.254,478.564H409.718a0,0,0,0,1,0,0v23.179a30,30,0,0,1-30,30H283.254a30,30,0,0,1-30-30V478.564A0,0,0,0,1,253.254,478.564Z"/><path class="e" d="M303.88,531.743h55.213a0,0,0,0,1,0,0v72.2a27.606,27.606,0,0,1-27.606,27.606h0a27.606,27.606,0,0,1-27.606-27.606v-72.2a0,0,0,0,1,0,0Z"/><path class="g" d="M515.3,300.743H388.48a22,22,0,0,1-22-22h0a22,22,0,0,1,22-22H515.3a22,22,0,0,1,22,22h0A22,22,0,0,1,515.3,300.743Z"/><path class="c" d="M525.2,332.477H472.815a4,4,0,0,1,0-8H525.2a4,4,0,0,1,0,8Z"/><path class="c" d="M413.171,332.477h-34.6a4,4,0,0,1,0-8h34.6a4,4,0,0,1,0,8Z"/><path class="c" d="M525.2,349.743H494.174a4,4,0,0,1,0-8H525.2a4,4,0,0,1,0,8Z"/><path class="c" d="M440.664,349.743H378.573a4,4,0,0,1,0-8h62.091a4,4,0,0,1,0,8Z"/><path class="c" d="M525.2,367.009H456.4a4,4,0,0,1,0-8h68.8a4,4,0,0,1,0,8Z"/><path class="c" d="M406.487,367.009H378.573a4,4,0,0,1,0-8h27.914a4,4,0,0,1,0,8Z"/><path class="c" d="M525.2,384.276H496.42a4,4,0,0,1,0-8H525.2a4,4,0,0,1,0,8Z"/><path class="c" d="M443.36,384.276H378.573a4,4,0,0,1,0-8H443.36a4,4,0,0,1,0,8Z"/><path class="c" d="M525.2,401.076H454.6a4,4,0,0,1,0-8h70.6a4,4,0,0,1,0,8Z"/><path class="c" d="M413.165,401.076H378.573a4,4,0,0,1,0-8h34.593a4,4,0,0,1,0,8Z"/><path class="c" d="M525.2,418.342H490.8a4,4,0,0,1,0-8H525.2a4,4,0,0,1,0,8Z"/><path class="c" d="M446.958,418.342H378.573a4,4,0,0,1,0-8h68.385a4,4,0,0,1,0,8Z"/><path class="c" d="M542.7,478.564H120.277a30,30,0,0,1-30-30H572.7A30,30,0,0,1,542.7,478.564Z"/><rect class="c" x="120.506" y="384.942" width="41.534" height="41.534"/><rect class="b" x="177.815" y="384.942" width="41.534" height="41.534"/><path class="b" d="M420.188,274.092l-13-7.5a5.371,5.371,0,0,0-8.057,4.651v15.007a5.371,5.371,0,0,0,8.057,4.651l13-7.5A5.371,5.371,0,0,0,420.188,274.092Z"/><path class="b" d="M510.906,283.743h-71.5a5,5,0,0,1,0-10h71.5a5,5,0,0,1,0,10Z"/><rect class="c" x="120.506" y="256.743" width="132.748" height="74.667" rx="30" ry="30"/></svg>